<svg width="78" height="102" viewBox="0 0 78 102" fill="none" xmlns="http://www.w3.org/2000/svg">
<path d="M12.592 91.152H4.43197V90.432H12.128V89.072H4.43197V88.368H12.48V86.96H2.33597V92.576H12.592V91.152ZM4.31997 99.04H12.384V95.472H2.20797V96.944H10.304V97.648H2.22397V101.264H12.768V99.792H4.31997V99.04ZM0.719971 93.248V94.8H13.984V93.248H0.719971Z" fill="#EB5757"/>
<path d="M25.6147 95.28H27.7267V86.64H25.6147V88.4H23.2467V90.096H25.6147V91.488H23.2467V93.168H25.6147V95.28ZM15.9667 90.256V94.912H17.1027C19.8067 94.912 21.3587 94.88 23.1347 94.56L22.9267 92.864C21.4227 93.136 20.1107 93.2 18.0627 93.216V91.808H22.3987V87.264H15.9507V88.96H20.3187V90.256H15.9667ZM26.2387 95.76H24.1587V96.192C24.1587 97.28 23.6627 98.576 22.4627 99.456C21.3107 98.624 20.8307 97.376 20.8307 96.192V95.76H18.7827V96.192C18.7827 97.648 17.9827 99.152 16.0627 99.84L17.1027 101.36C18.4147 100.88 19.3107 99.968 19.8227 98.864C20.3027 100.016 21.1347 100.976 22.4947 101.488C23.8067 100.96 24.6707 99.968 25.1667 98.832C25.6627 99.984 26.5427 100.88 27.9347 101.36L28.9907 99.84C27.0227 99.2 26.2387 97.744 26.2387 96.192V95.76Z" fill="#EB5757"/>
<path d="M42.7815 90.768C39.4695 90.4 37.8695 88.736 37.8695 87.248V86.8H35.6935V87.248C35.6935 88.752 34.0935 90.384 30.7815 90.768L31.5175 92.4C34.0295 92.08 35.8535 91.056 36.7815 89.648C37.7255 91.056 39.5175 92.096 42.0295 92.4L42.7815 90.768ZM39.6775 99.568H33.7735V98.288H39.6775V99.568ZM39.6775 96.704H33.7735V95.472H31.6775V101.2H41.7575V95.472H39.6775V96.704ZM30.1255 93.072V94.736H43.4375V93.072H30.1255Z" fill="#EB5757"/>
<path d="M47.7082 88.032H45.6122V97.744H46.9242C49.1642 97.744 51.6122 97.584 54.1242 97.056L53.9002 95.296C51.7402 95.728 49.6442 95.888 47.7082 95.936V88.032ZM55.0362 86.624V101.36H57.1482V86.624H55.0362Z" fill="#EB5757"/>
<path d="M62.235 89.712H67.003V88H60.139V97.872H61.387C63.947 97.872 65.963 97.792 68.187 97.392L67.979 95.648C66.075 95.968 64.331 96.08 62.235 96.112V89.712ZM73.243 92.08H71.099V86.64H68.987V101.408H71.099V93.824H73.243V92.08Z" fill="#EB5757"/>
<path d="M74.5781 98.8906C74.5781 98.5313 74.6979 98.2396 74.9375 98.0156C75.1823 97.7917 75.4869 97.6797 75.8515 97.6797C76.2213 97.6797 76.526 97.7917 76.7656 98.0156C77.0104 98.2396 77.1328 98.5313 77.1328 98.8906C77.1328 99.2448 77.013 99.5339 76.7734 99.7578C76.5338 99.9766 76.2265 100.086 75.8515 100.086C75.4817 100.086 75.1771 99.9766 74.9375 99.7578C74.6979 99.5339 74.5781 99.2448 74.5781 98.8906Z" fill="#EB5757"/>
<path fill-rule="evenodd" clip-rule="evenodd" d="M11.7678 2.23223C12.7441 1.25592 14.327 1.25592 15.3033 2.23223L67.7678 54.6967C68.7441 55.673 68.7441 57.2559 67.7678 58.2322C66.7914 59.2085 65.2085 59.2085 64.2322 58.2322L11.7678 5.76776C10.7914 4.79145 10.7914 3.20854 11.7678 2.23223Z" fill="#EB5757"/>
<path fill-rule="evenodd" clip-rule="evenodd" d="M8.23224 58.2322C7.25593 57.2559 7.25593 55.673 8.23224 54.6967L60.6967 2.23224C61.673 1.25592 63.2559 1.25593 64.2322 2.23224C65.2086 3.20855 65.2086 4.79146 64.2322 5.76777L11.7678 58.2322C10.7915 59.2085 9.20856 59.2085 8.23224 58.2322Z" fill="#EB5757"/>
</svg>
