<svg width="78" height="100" viewBox="0 0 78 100" fill="none" xmlns="http://www.w3.org/2000/svg">
<path fill-rule="evenodd" clip-rule="evenodd" d="M39.5 61C55.2401 61 68 48.2401 68 32.5C68 16.7599 55.2401 4 39.5 4C23.7599 4 11 16.7599 11 32.5C11 48.2401 23.7599 61 39.5 61ZM39.5 65C57.4493 65 72 50.4493 72 32.5C72 14.5507 57.4493 0 39.5 0C21.5507 0 7 14.5507 7 32.5C7 50.4493 21.5507 65 39.5 65Z" fill="#219653"/>
<path d="M8.68803 88.192V89.904H10.896V93.408H13.008V84.64H10.896V88.192H8.68803ZM9.56803 91.36C7.32803 90.624 6.30403 88.896 6.24003 87.216H9.10403V85.52H1.18403V87.216H4.08003C4.01603 89.056 2.94403 90.928 0.608032 91.744L1.68003 93.408C3.39203 92.832 4.56003 91.632 5.20003 90.144C5.84003 91.44 6.94403 92.48 8.54403 93.008L9.56803 91.36ZM8.03203 97.792C6.09603 97.792 5.08803 97.392 5.08803 96.56C5.08803 95.728 6.09603 95.328 8.03203 95.328C9.95203 95.328 10.96 95.728 10.96 96.56C10.96 97.392 9.95203 97.792 8.03203 97.792ZM8.03203 93.728C4.89603 93.728 2.97603 94.768 2.97603 96.56C2.97603 98.352 4.89603 99.392 8.03203 99.392C11.152 99.392 13.072 98.352 13.072 96.56C13.072 94.768 11.152 93.728 8.03203 93.728Z" fill="#219653"/>
<path d="M23.7428 90.048C22.1428 90.384 20.6868 90.496 18.0628 90.512V87.184H22.5268V85.504H15.9668V92.208H17.1988C20.4628 92.208 22.1428 92.112 23.9508 91.728L23.7428 90.048ZM24.9108 97.504H19.4708V96.208H24.9108V97.504ZM24.9108 94.592H19.4708V93.248H17.3908V99.184H27.0068V93.248H24.9108V94.592ZM28.9588 87.808H27.0068V84.624H24.8948V92.528H27.0068V89.536H28.9588V87.808Z" fill="#219653"/>
<path d="M40.2375 84.64V92.56H42.3655V84.64H40.2375ZM32.5735 93.2V99.2H42.3655V93.2H40.2695V94.576H34.6695V93.2H32.5735ZM34.6695 96.192H40.2695V97.52H34.6695V96.192ZM34.3495 85.248C32.0615 85.248 30.3335 86.704 30.3335 88.72C30.3335 90.752 32.0615 92.208 34.3495 92.208C36.6375 92.208 38.3495 90.752 38.3495 88.72C38.3495 86.704 36.6375 85.248 34.3495 85.248ZM34.3495 86.992C35.4695 86.992 36.2855 87.648 36.2855 88.72C36.2855 89.824 35.4695 90.464 34.3495 90.464C33.2295 90.464 32.3975 89.824 32.3975 88.72C32.3975 87.648 33.2295 86.992 34.3495 86.992Z" fill="#219653"/>
<path d="M47.7083 86.032H45.6123V95.744H46.9243C49.1643 95.744 51.6123 95.584 54.1243 95.056L53.9003 93.296C51.7403 93.728 49.6443 93.888 47.7083 93.936V86.032ZM55.0363 84.624V99.36H57.1483V84.624H55.0363Z" fill="#219653"/>
<path d="M62.235 87.712H67.003V86H60.139V95.872H61.387C63.947 95.872 65.963 95.792 68.187 95.392L67.979 93.648C66.075 93.968 64.331 94.08 62.235 94.112V87.712ZM73.243 90.08H71.099V84.64H68.987V99.408H71.099V91.824H73.243V90.08Z" fill="#219653"/>
<path d="M74.5782 96.8906C74.5782 96.5313 74.6979 96.2396 74.9375 96.0156C75.1823 95.7917 75.487 95.6797 75.8516 95.6797C76.2214 95.6797 76.5261 95.7917 76.7657 96.0156C77.0104 96.2396 77.1328 96.5313 77.1328 96.8906C77.1328 97.2448 77.0131 97.5339 76.7735 97.7578C76.5339 97.9766 76.2266 98.0859 75.8516 98.0859C75.4818 98.0859 75.1771 97.9766 74.9375 97.7578C74.6979 97.5339 74.5782 97.2448 74.5782 96.8906Z" fill="#219653"/>
</svg>
